<svg width="17.000000" height="14.750000" viewBox="0 0 17 14.75" fill="none" xmlns="http://www.w3.org/2000/svg" xmlns:xlink="http://www.w3.org/1999/xlink">
	<desc>
			Created with Pixso.
	</desc>
	<defs/>
	<path id="Vector" d="M14.5 13.75C14.89 13.75 15.27 13.59 15.56 13.31C15.84 13.02 16 12.64 16 12.25L16 4.75C16 4.35 15.84 3.97 15.56 3.68C15.27 3.4 14.89 3.25 14.5 3.25L8.55 3.25C8.3 3.24 8.06 3.18 7.84 3.06C7.62 2.95 7.44 2.78 7.3 2.57L6.69 1.67C6.55 1.46 6.37 1.29 6.15 1.18C5.93 1.06 5.69 1 5.44 1L2.5 1C2.1 1 1.72 1.15 1.43 1.43C1.15 1.72 1 2.1 1 2.5L1 12.25C1 13.07 1.67 13.75 2.5 13.75L14.5 13.75Z" stroke="#FFFFFF" stroke-opacity="1.000000" stroke-width="2.000000" stroke-linejoin="round"/>
</svg>
